<mxfile host="Electron" agent="Mozilla/5.0 (Windows NT 10.0; Win64; x64) AppleWebKit/537.36 (KHTML, like Gecko) draw.io/24.7.17 Chrome/128.0.6613.36 Electron/32.0.1 Safari/537.36" version="24.7.17">
  <diagram name="Pagina-1" id="1iP72UF2LDxVLIAfxwxM">
    <mxGraphModel dx="676" dy="391" grid="1" gridSize="10" guides="1" tooltips="1" connect="1" arrows="1" fold="1" page="1" pageScale="1" pageWidth="827" pageHeight="1169" math="0" shadow="0">
      <root>
        <mxCell id="0" />
        <mxCell id="1" parent="0" />
        <mxCell id="PEXh_kzmDDtfxACpXGH7-7" value="" style="shape=waypoint;sketch=0;fillStyle=solid;size=6;pointerEvents=1;points=[];fillColor=none;resizable=0;rotatable=0;perimeter=centerPerimeter;snapToPoint=1;" vertex="1" parent="1">
          <mxGeometry x="370" y="330" width="20" height="20" as="geometry" />
        </mxCell>
        <mxCell id="PEXh_kzmDDtfxACpXGH7-8" value="" style="shape=waypoint;sketch=0;fillStyle=solid;size=6;pointerEvents=1;points=[];fillColor=none;resizable=0;rotatable=0;perimeter=centerPerimeter;snapToPoint=1;" vertex="1" parent="1">
          <mxGeometry x="610" y="330" width="20" height="20" as="geometry" />
        </mxCell>
        <mxCell id="PEXh_kzmDDtfxACpXGH7-9" style="edgeStyle=orthogonalEdgeStyle;rounded=0;orthogonalLoop=1;jettySize=auto;html=1;entryX=0.382;entryY=0.33;entryDx=0;entryDy=0;entryPerimeter=0;curved=1;endArrow=none;endFill=0;" edge="1" parent="1" source="PEXh_kzmDDtfxACpXGH7-7" target="PEXh_kzmDDtfxACpXGH7-8">
          <mxGeometry relative="1" as="geometry" />
        </mxCell>
        <mxCell id="PEXh_kzmDDtfxACpXGH7-22" value="" style="endArrow=none;html=1;rounded=0;" edge="1" parent="1">
          <mxGeometry width="50" height="50" relative="1" as="geometry">
            <mxPoint x="320" y="340" as="sourcePoint" />
            <mxPoint x="380" y="340" as="targetPoint" />
          </mxGeometry>
        </mxCell>
        <mxCell id="PEXh_kzmDDtfxACpXGH7-23" value="" style="endArrow=none;html=1;rounded=0;dashed=1;" edge="1" parent="1">
          <mxGeometry width="50" height="50" relative="1" as="geometry">
            <mxPoint x="260" y="339.76" as="sourcePoint" />
            <mxPoint x="320" y="339.76" as="targetPoint" />
          </mxGeometry>
        </mxCell>
        <mxCell id="PEXh_kzmDDtfxACpXGH7-24" value="" style="endArrow=none;html=1;rounded=0;dashed=1;" edge="1" parent="1">
          <mxGeometry width="50" height="50" relative="1" as="geometry">
            <mxPoint x="680" y="339.76" as="sourcePoint" />
            <mxPoint x="740" y="339.76" as="targetPoint" />
          </mxGeometry>
        </mxCell>
        <mxCell id="PEXh_kzmDDtfxACpXGH7-25" value="" style="endArrow=none;html=1;rounded=0;" edge="1" parent="1">
          <mxGeometry width="50" height="50" relative="1" as="geometry">
            <mxPoint x="620" y="339.76" as="sourcePoint" />
            <mxPoint x="680" y="339.76" as="targetPoint" />
          </mxGeometry>
        </mxCell>
        <mxCell id="PEXh_kzmDDtfxACpXGH7-57" value="" style="group" vertex="1" connectable="0" parent="1">
          <mxGeometry x="320" y="160" width="360" height="190" as="geometry" />
        </mxCell>
        <mxCell id="PEXh_kzmDDtfxACpXGH7-10" value="" style="endArrow=none;html=1;rounded=0;curved=1;endFill=0;" edge="1" parent="PEXh_kzmDDtfxACpXGH7-57">
          <mxGeometry width="50" height="50" relative="1" as="geometry">
            <mxPoint x="60" y="180" as="sourcePoint" />
            <mxPoint x="300" y="180" as="targetPoint" />
            <Array as="points">
              <mxPoint x="60" y="160" />
              <mxPoint x="180" y="160" />
              <mxPoint x="300" y="160" />
            </Array>
          </mxGeometry>
        </mxCell>
        <mxCell id="PEXh_kzmDDtfxACpXGH7-11" value="" style="endArrow=none;html=1;rounded=0;curved=1;endFill=0;" edge="1" parent="PEXh_kzmDDtfxACpXGH7-57">
          <mxGeometry width="50" height="50" relative="1" as="geometry">
            <mxPoint x="60" y="180" as="sourcePoint" />
            <mxPoint x="300" y="180" as="targetPoint" />
            <Array as="points">
              <mxPoint x="50" y="150" />
              <mxPoint x="180" y="140" />
              <mxPoint x="310" y="150" />
            </Array>
          </mxGeometry>
        </mxCell>
        <mxCell id="PEXh_kzmDDtfxACpXGH7-12" value="" style="endArrow=none;html=1;rounded=0;curved=1;endFill=0;" edge="1" parent="PEXh_kzmDDtfxACpXGH7-57">
          <mxGeometry width="50" height="50" relative="1" as="geometry">
            <mxPoint x="60" y="180" as="sourcePoint" />
            <mxPoint x="300" y="180" as="targetPoint" />
            <Array as="points">
              <mxPoint x="40" y="140" />
              <mxPoint x="180" y="110" />
              <mxPoint x="320" y="140" />
            </Array>
          </mxGeometry>
        </mxCell>
        <mxCell id="PEXh_kzmDDtfxACpXGH7-13" value="" style="endArrow=none;html=1;rounded=0;curved=1;endFill=0;" edge="1" parent="PEXh_kzmDDtfxACpXGH7-57">
          <mxGeometry width="50" height="50" relative="1" as="geometry">
            <mxPoint x="60" y="180" as="sourcePoint" />
            <mxPoint x="300" y="180" as="targetPoint" />
            <Array as="points">
              <mxPoint x="30" y="130" />
              <mxPoint x="180" y="90" />
              <mxPoint x="330" y="130" />
            </Array>
          </mxGeometry>
        </mxCell>
        <mxCell id="PEXh_kzmDDtfxACpXGH7-14" value="" style="endArrow=none;html=1;rounded=0;curved=1;endFill=0;" edge="1" parent="PEXh_kzmDDtfxACpXGH7-57">
          <mxGeometry width="50" height="50" relative="1" as="geometry">
            <mxPoint x="60" y="180" as="sourcePoint" />
            <mxPoint x="300" y="180" as="targetPoint" />
            <Array as="points">
              <mxPoint y="120" />
              <mxPoint x="180" y="70" />
              <mxPoint x="360" y="120" />
            </Array>
          </mxGeometry>
        </mxCell>
        <mxCell id="PEXh_kzmDDtfxACpXGH7-18" value="" style="endArrow=none;html=1;rounded=0;curved=1;" edge="1" parent="PEXh_kzmDDtfxACpXGH7-57">
          <mxGeometry width="50" height="50" relative="1" as="geometry">
            <mxPoint x="60" y="180" as="sourcePoint" />
            <mxPoint x="60" y="30" as="targetPoint" />
            <Array as="points">
              <mxPoint y="160" />
              <mxPoint y="110" />
            </Array>
          </mxGeometry>
        </mxCell>
        <mxCell id="PEXh_kzmDDtfxACpXGH7-19" value="" style="endArrow=none;html=1;rounded=0;curved=1;" edge="1" parent="PEXh_kzmDDtfxACpXGH7-57">
          <mxGeometry width="50" height="50" relative="1" as="geometry">
            <mxPoint x="299.83000000000004" y="180" as="sourcePoint" />
            <mxPoint x="299.83000000000004" y="30" as="targetPoint" />
            <Array as="points">
              <mxPoint x="360" y="160" />
              <mxPoint x="360" y="100" />
            </Array>
          </mxGeometry>
        </mxCell>
        <mxCell id="PEXh_kzmDDtfxACpXGH7-20" value="" style="endArrow=none;html=1;rounded=0;dashed=1;curved=1;" edge="1" parent="PEXh_kzmDDtfxACpXGH7-57">
          <mxGeometry width="50" height="50" relative="1" as="geometry">
            <mxPoint x="270" as="sourcePoint" />
            <mxPoint x="300" y="30" as="targetPoint" />
          </mxGeometry>
        </mxCell>
        <mxCell id="PEXh_kzmDDtfxACpXGH7-21" value="" style="endArrow=none;html=1;rounded=0;dashed=1;curved=1;" edge="1" parent="PEXh_kzmDDtfxACpXGH7-57">
          <mxGeometry width="50" height="50" relative="1" as="geometry">
            <mxPoint x="60" y="30" as="sourcePoint" />
            <mxPoint x="90" as="targetPoint" />
          </mxGeometry>
        </mxCell>
        <mxCell id="PEXh_kzmDDtfxACpXGH7-86" value="" style="endArrow=classic;html=1;rounded=0;" edge="1" parent="PEXh_kzmDDtfxACpXGH7-57">
          <mxGeometry width="50" height="50" relative="1" as="geometry">
            <mxPoint x="175" y="160" as="sourcePoint" />
            <mxPoint x="185" y="160" as="targetPoint" />
            <Array as="points">
              <mxPoint x="175" y="160" />
            </Array>
          </mxGeometry>
        </mxCell>
        <mxCell id="PEXh_kzmDDtfxACpXGH7-88" value="" style="endArrow=classic;html=1;rounded=0;" edge="1" parent="PEXh_kzmDDtfxACpXGH7-57">
          <mxGeometry width="50" height="50" relative="1" as="geometry">
            <mxPoint x="175" y="180" as="sourcePoint" />
            <mxPoint x="185" y="180" as="targetPoint" />
            <Array as="points">
              <mxPoint x="175" y="180" />
            </Array>
          </mxGeometry>
        </mxCell>
        <mxCell id="PEXh_kzmDDtfxACpXGH7-58" value="" style="group;rotation=-180;" vertex="1" connectable="0" parent="1">
          <mxGeometry x="320" y="340" width="360" height="180" as="geometry" />
        </mxCell>
        <mxCell id="PEXh_kzmDDtfxACpXGH7-59" value="" style="endArrow=none;html=1;rounded=0;curved=1;endFill=0;" edge="1" parent="PEXh_kzmDDtfxACpXGH7-58">
          <mxGeometry width="50" height="50" relative="1" as="geometry">
            <mxPoint x="300" as="sourcePoint" />
            <mxPoint x="60" as="targetPoint" />
            <Array as="points">
              <mxPoint x="300" y="20" />
              <mxPoint x="180" y="20" />
              <mxPoint x="60" y="20" />
            </Array>
          </mxGeometry>
        </mxCell>
        <mxCell id="PEXh_kzmDDtfxACpXGH7-60" value="" style="endArrow=none;html=1;rounded=0;curved=1;endFill=0;" edge="1" parent="PEXh_kzmDDtfxACpXGH7-58">
          <mxGeometry width="50" height="50" relative="1" as="geometry">
            <mxPoint x="300" as="sourcePoint" />
            <mxPoint x="60" as="targetPoint" />
            <Array as="points">
              <mxPoint x="310" y="30" />
              <mxPoint x="180" y="40" />
              <mxPoint x="50" y="30" />
            </Array>
          </mxGeometry>
        </mxCell>
        <mxCell id="PEXh_kzmDDtfxACpXGH7-61" value="" style="endArrow=none;html=1;rounded=0;curved=1;endFill=0;" edge="1" parent="PEXh_kzmDDtfxACpXGH7-58">
          <mxGeometry width="50" height="50" relative="1" as="geometry">
            <mxPoint x="300" as="sourcePoint" />
            <mxPoint x="60" as="targetPoint" />
            <Array as="points">
              <mxPoint x="320" y="40" />
              <mxPoint x="180" y="70" />
              <mxPoint x="40" y="40" />
            </Array>
          </mxGeometry>
        </mxCell>
        <mxCell id="PEXh_kzmDDtfxACpXGH7-62" value="" style="endArrow=none;html=1;rounded=0;curved=1;endFill=0;" edge="1" parent="PEXh_kzmDDtfxACpXGH7-58">
          <mxGeometry width="50" height="50" relative="1" as="geometry">
            <mxPoint x="300" as="sourcePoint" />
            <mxPoint x="60" as="targetPoint" />
            <Array as="points">
              <mxPoint x="330" y="50" />
              <mxPoint x="180" y="90" />
              <mxPoint x="30" y="50" />
            </Array>
          </mxGeometry>
        </mxCell>
        <mxCell id="PEXh_kzmDDtfxACpXGH7-63" value="" style="endArrow=none;html=1;rounded=0;curved=1;endFill=0;" edge="1" parent="PEXh_kzmDDtfxACpXGH7-58">
          <mxGeometry width="50" height="50" relative="1" as="geometry">
            <mxPoint x="300" as="sourcePoint" />
            <mxPoint x="60" as="targetPoint" />
            <Array as="points">
              <mxPoint x="360" y="60" />
              <mxPoint x="180" y="110" />
              <mxPoint y="60" />
            </Array>
          </mxGeometry>
        </mxCell>
        <mxCell id="PEXh_kzmDDtfxACpXGH7-64" value="" style="endArrow=none;html=1;rounded=0;curved=1;" edge="1" parent="PEXh_kzmDDtfxACpXGH7-58">
          <mxGeometry width="50" height="50" relative="1" as="geometry">
            <mxPoint x="300" as="sourcePoint" />
            <mxPoint x="300" y="150" as="targetPoint" />
            <Array as="points">
              <mxPoint x="360" y="20" />
              <mxPoint x="360" y="70" />
            </Array>
          </mxGeometry>
        </mxCell>
        <mxCell id="PEXh_kzmDDtfxACpXGH7-65" value="" style="endArrow=none;html=1;rounded=0;curved=1;" edge="1" parent="PEXh_kzmDDtfxACpXGH7-58">
          <mxGeometry width="50" height="50" relative="1" as="geometry">
            <mxPoint x="60" as="sourcePoint" />
            <mxPoint x="60" y="150" as="targetPoint" />
            <Array as="points">
              <mxPoint y="20" />
              <mxPoint y="80" />
            </Array>
          </mxGeometry>
        </mxCell>
        <mxCell id="PEXh_kzmDDtfxACpXGH7-66" value="" style="endArrow=none;html=1;rounded=0;dashed=1;curved=1;" edge="1" parent="PEXh_kzmDDtfxACpXGH7-58">
          <mxGeometry width="50" height="50" relative="1" as="geometry">
            <mxPoint x="90" y="180" as="sourcePoint" />
            <mxPoint x="60" y="150" as="targetPoint" />
          </mxGeometry>
        </mxCell>
        <mxCell id="PEXh_kzmDDtfxACpXGH7-67" value="" style="endArrow=none;html=1;rounded=0;dashed=1;curved=1;" edge="1" parent="PEXh_kzmDDtfxACpXGH7-58">
          <mxGeometry width="50" height="50" relative="1" as="geometry">
            <mxPoint x="300" y="150" as="sourcePoint" />
            <mxPoint x="270" y="180" as="targetPoint" />
          </mxGeometry>
        </mxCell>
        <mxCell id="PEXh_kzmDDtfxACpXGH7-69" value="+" style="ellipse;whiteSpace=wrap;html=1;aspect=fixed;fillColor=#f8cecc;strokeColor=#b85450;" vertex="1" parent="PEXh_kzmDDtfxACpXGH7-58">
          <mxGeometry x="50" y="-10" width="20" height="20" as="geometry" />
        </mxCell>
        <mxCell id="PEXh_kzmDDtfxACpXGH7-89" value="" style="endArrow=classic;html=1;rounded=0;" edge="1" parent="PEXh_kzmDDtfxACpXGH7-58">
          <mxGeometry width="50" height="50" relative="1" as="geometry">
            <mxPoint x="175" y="20" as="sourcePoint" />
            <mxPoint x="185" y="20" as="targetPoint" />
            <Array as="points">
              <mxPoint x="175" y="20" />
            </Array>
          </mxGeometry>
        </mxCell>
        <mxCell id="PEXh_kzmDDtfxACpXGH7-85" value="-" style="ellipse;whiteSpace=wrap;html=1;aspect=fixed;fillColor=#dae8fc;strokeColor=#6c8ebf;" vertex="1" parent="1">
          <mxGeometry x="610" y="330" width="20" height="20" as="geometry" />
        </mxCell>
      </root>
    </mxGraphModel>
  </diagram>
</mxfile>
